<svg width="25" height="28" viewBox="0 0 25 28" fill="none" xmlns="http://www.w3.org/2000/svg">
<path d="M9.93531 11.3288C9.15998 11.3288 8.54787 12.0038 8.54787 12.8273C8.54787 13.6508 9.17358 14.3258 9.93531 14.3258C10.7106 14.3258 11.3228 13.6508 11.3228 12.8273C11.3364 12.0038 10.7106 11.3288 9.93531 11.3288ZM14.9002 11.3288C14.1248 11.3288 13.5127 12.0038 13.5127 12.8273C13.5127 13.6508 14.1384 14.3258 14.9002 14.3258C15.6755 14.3258 16.2876 13.6508 16.2876 12.8273C16.2876 12.0038 15.6755 11.3288 14.9002 11.3288Z" fill="white"/>
<path d="M21.5109 0.00244141H3.28378C1.74671 0.00244141 0.4953 1.24444 0.4953 2.78344V21.0354C0.4953 22.5744 1.74671 23.8164 3.28378 23.8164H18.7088L17.9879 21.3189L19.729 22.9254L21.3749 24.4374L24.2994 27.0024V2.78344C24.2994 1.24444 23.048 0.00244141 21.5109 0.00244141ZM16.2604 17.6334C16.2604 17.6334 15.7707 17.0529 15.3626 16.5399C17.1446 16.0404 17.8247 14.9334 17.8247 14.9334C17.267 15.2979 16.7365 15.5544 16.2604 15.7299C15.5803 16.0134 14.9274 16.2024 14.2881 16.3104C12.9822 16.5534 11.7852 16.4859 10.7651 16.2969C9.98973 16.1484 9.32321 15.9324 8.76552 15.7164C8.45266 15.5949 8.11261 15.4464 7.77255 15.2574C7.73174 15.2304 7.69093 15.2169 7.65013 15.1899C7.62292 15.1764 7.60932 15.1629 7.59572 15.1494C7.35088 15.0144 7.21485 14.9199 7.21485 14.9199C7.21485 14.9199 7.86776 15.9999 9.59526 16.5129C9.18719 17.0259 8.6839 17.6334 8.6839 17.6334C5.67779 17.5389 4.53519 15.5814 4.53519 15.5814C4.53519 11.2344 6.49393 7.71094 6.49393 7.71094C8.45266 6.25294 10.3162 6.29344 10.3162 6.29344L10.4522 6.45544C8.00379 7.15744 6.87479 8.22394 6.87479 8.22394C6.87479 8.22394 7.17405 8.06194 7.67733 7.83244C9.13278 7.19794 10.289 7.02244 10.7651 6.98194C10.8467 6.96844 10.9147 6.95494 10.9963 6.95494C11.826 6.84694 12.7646 6.81994 13.744 6.92794C15.0362 7.07644 16.4236 7.45444 17.8383 8.22394C17.8383 8.22394 16.7637 7.21144 14.4513 6.50944L14.6417 6.29344C14.6417 6.29344 16.5052 6.25294 18.464 7.71094C18.464 7.71094 20.4227 11.2344 20.4227 15.5814C20.4227 15.5814 19.2665 17.5389 16.2604 17.6334Z" fill="white"/>
</svg>
