<svg width="82" height="87" viewBox="0 0 82 87" fill="none" xmlns="http://www.w3.org/2000/svg">
<g style="mix-blend-mode:difference">
<path d="M44.9048 17.4V7.73333L37.0952 0V17.4H44.9048Z" fill="black"/>
<path d="M44.9048 38.6667H37.0952L37.0952 77.3333L44.9048 69.6L44.9048 38.6667Z" fill="black"/>
<path d="M35.1428 69.5993C32.7718 71.3629 31.2381 74.1707 31.2381 77.3333C31.2381 82.6721 35.6086 87 41 87C46.3913 87 50.7619 82.6721 50.7619 77.3333C50.7619 74.3695 49.415 71.7173 47.2942 69.9441L46.2853 70.9671L44.5303 72.7049C45.9438 73.7638 46.8571 75.4429 46.8571 77.3333C46.8571 80.5366 44.2348 83.1333 41 83.1333C37.7652 83.1333 35.1428 80.5366 35.1428 77.3333V69.5993Z" fill="black"/>
<path d="M27.0572 17.4C29.2767 15.1581 32.0432 13.4491 35.1429 12.4851V16.5909C34.5541 16.8269 33.9831 17.0975 33.4326 17.4H27.0572Z" fill="black"/>
<path d="M23.1007 38.6667C25.3456 43.7544 29.7377 47.7005 35.1429 49.3816V45.2757C31.9031 43.9771 29.2035 41.6334 27.4705 38.6667H23.1007Z" fill="black"/>
<path d="M54.5295 38.6667C52.7964 41.6334 50.0969 43.9771 46.8571 45.2757V49.3816C52.2622 47.7005 56.6544 43.7544 58.8992 38.6667H54.5295Z" fill="black"/>
<path d="M54.9428 17.4C52.7233 15.1581 49.9568 13.4491 46.8571 12.4851V16.5909C47.4459 16.8269 48.0169 17.0975 48.5674 17.4H54.9428Z" fill="black"/>
<path d="M0 19.3333H82L74.1905 27.0667H7.80952L0 19.3333Z" fill="black"/>
<path d="M13.6667 29H68.3333L60.5238 36.7333H21.4762L13.6667 29Z" fill="black"/>
</g>
</svg>
