<svg width="32" height="26" viewBox="0 0 32 26" fill="none" xmlns="http://www.w3.org/2000/svg">
<path d="M0.647339 22.2082C4.13289 22.5168 7.27038 21.6593 10.056 19.5697C8.69316 19.5117 7.46133 19.1013 6.37148 18.3032C5.28025 17.504 4.52745 16.4642 4.08832 15.1776C5.05986 15.3432 5.99756 15.321 6.93278 15.068C5.44781 14.7262 4.21048 13.9942 3.25352 12.8278C2.29684 11.662 1.8412 10.322 1.83129 8.84452C2.29822 9.01786 2.75496 9.20875 3.22573 9.35563C3.69623 9.50251 4.18599 9.57325 4.73051 9.58297C3.33084 8.61259 2.42341 7.35088 2.05168 5.74762C1.67996 4.14436 1.92374 2.62047 2.7456 1.17381C6.22373 5.1952 10.6225 7.4038 16.0019 7.76911C15.9672 7.55338 15.9345 7.37383 15.91 7.19347C15.7386 5.9323 15.9061 4.7173 16.4856 3.57601C17.4191 1.7373 18.9148 0.565233 20.9633 0.147002C22.9009 -0.248548 24.6792 0.171302 26.2538 1.36146C26.4816 1.53372 26.68 1.7427 26.899 1.92684C26.9422 1.96329 27.0226 1.98732 27.0773 1.97625C28.4498 1.70112 29.741 1.21458 30.953 0.526083C30.9764 0.512853 31.0009 0.502053 31.0482 0.478833C30.5387 1.96194 29.6167 3.09864 28.2937 3.93646C29.5385 3.80308 30.7282 3.47449 31.8751 2.98687C31.8825 2.99632 31.8899 3.00576 31.8973 3.01522C31.658 3.32518 31.4271 3.64216 31.1773 3.94375C30.4801 4.78534 29.6857 5.52865 28.7931 6.16909C28.7257 6.21742 28.7004 6.26494 28.7059 6.34729C28.7593 7.13893 28.7211 7.92922 28.6407 8.71654C28.4231 10.8517 27.837 12.8886 26.9032 14.828C25.9349 16.8387 24.6492 18.6304 23.0167 20.1762C21.1116 21.9798 18.9008 23.2903 16.3838 24.0998C15.2956 24.4497 14.1823 24.6895 13.0465 24.8364C11.9124 24.983 10.7735 25.034 9.63279 24.9835C6.44192 24.842 3.48712 23.9408 0.770879 22.2897C0.728782 22.2638 0.688611 22.2352 0.647339 22.2082Z" fill="white"/>
</svg>
