<svg width="37" height="26" viewBox="0 0 37 26" fill="none" xmlns="http://www.w3.org/2000/svg">
<path d="M18.509 25.0024C16.9096 24.9797 15.4451 24.9626 13.9805 24.9364C12.9296 24.9178 11.8785 24.8951 10.828 24.8593C9.6037 24.8175 8.37982 24.7635 7.15832 24.6651C6.52995 24.6145 5.90005 24.5836 5.27625 24.4872C4.78887 24.4117 4.30998 24.3043 3.84175 24.1483C2.58022 23.7276 1.71947 22.9013 1.2421 21.6792C0.983178 21.016 0.825868 20.328 0.72317 19.6275C0.567818 18.567 0.479045 17.5001 0.409855 16.4309C0.329132 15.1758 0.277784 13.92 0.248845 12.6634C0.231657 11.9134 0.282135 11.1639 0.311508 10.4145C0.336965 9.76532 0.379611 9.11653 0.416382 8.46774C0.460116 7.69763 0.531482 6.92988 0.618514 6.16342C0.697496 5.46747 0.801717 4.77645 0.984049 4.09872C1.07891 3.74635 1.19815 3.40235 1.34763 3.06863C1.83457 1.98152 2.65811 1.25706 3.79018 0.862898C4.44314 0.635703 5.11807 0.504744 5.8041 0.438514C7.1172 0.311627 8.43421 0.230608 9.75231 0.175953C10.9549 0.126013 12.1579 0.0945054 13.3613 0.0745722C15.2099 0.0439222 17.0584 -0.007947 18.9074 0.00427012C20.3213 0.0137009 21.7349 0.0394212 23.1485 0.0653558C24.127 0.0833599 25.1056 0.10758 26.0837 0.141445C27.2862 0.18324 28.4879 0.241111 29.6879 0.336062C30.3887 0.391575 31.0904 0.43187 31.783 0.55897C32.1966 0.634845 32.6026 0.737941 32.999 0.878331C34.2046 1.30529 35.0288 2.11419 35.4944 3.28575C35.7547 3.94076 35.9131 4.62127 36.0171 5.31443C36.1761 6.37454 36.2692 7.44128 36.3343 8.5106C36.4211 9.93658 36.5073 11.3632 36.494 12.7922C36.4849 13.7848 36.4324 14.7765 36.378 15.768C36.3404 16.4526 36.2995 17.1372 36.2346 17.8196C36.1306 18.914 36.0273 20.0093 35.7144 21.0715C35.5808 21.5255 35.4065 21.9629 35.167 22.3736C34.6298 23.2946 33.8112 23.8585 32.8034 24.1833C32.1807 24.3839 31.5395 24.4994 30.8898 24.562C29.8726 24.6599 28.8528 24.7283 27.8321 24.7793C26.239 24.8591 24.6446 24.8981 23.0499 24.9287C22.1148 24.9465 21.1794 24.9512 20.2442 24.9684C19.6209 24.9802 18.9975 24.9928 18.509 25.0024ZM14.7788 17.8351C17.9231 16.0456 21.0356 14.2743 24.1827 12.4831C21.0325 10.6904 17.9166 8.91741 14.7788 7.13157C14.7788 10.7123 14.7788 14.2531 14.7788 17.8351Z" fill="white"/>
</svg>
